<?xml version="1.0" encoding="UTF-8" standalone="no"?>
<svg
   xmlns:dc="http://purl.org/dc/elements/1.1/"
   xmlns:cc="http://creativecommons.org/ns#"
   xmlns:rdf="http://www.w3.org/1999/02/22-rdf-syntax-ns#"
   xmlns:svg="http://www.w3.org/2000/svg"
   xmlns="http://www.w3.org/2000/svg"
   xmlns:sodipodi="http://sodipodi.sourceforge.net/DTD/sodipodi-0.dtd"
   xmlns:inkscape="http://www.inkscape.org/namespaces/inkscape"
   height="50px"
   version="1.1"
   viewBox="0 0 50 50"
   width="50px"
   id="svg2"
   inkscape:version="0.91pre3 r13670"
   sodipodi:docname="gmail_noir.svg">
  <metadata
     id="metadata13">
    <rdf:RDF>
      <cc:Work
         rdf:about="">
        <dc:format>image/svg+xml</dc:format>
        <dc:type
           rdf:resource="http://purl.org/dc/dcmitype/StillImage" />
        <dc:title></dc:title>
      </cc:Work>
    </rdf:RDF>
  </metadata>
  <sodipodi:namedview
     pagecolor="#ffffff"
     bordercolor="#666666"
     borderopacity="1"
     objecttolerance="10"
     gridtolerance="10"
     guidetolerance="10"
     inkscape:pageopacity="0"
     inkscape:pageshadow="2"
     inkscape:window-width="640"
     inkscape:window-height="480"
     id="namedview11"
     showgrid="false"
     inkscape:zoom="6.26"
     inkscape:cx="-49.760384"
     inkscape:cy="25"
     inkscape:current-layer="svg2" />
  <defs
     id="defs6" />
  <g
     fill="none"
     fill-rule="evenodd"
     id="Page-1"
     stroke="none"
     stroke-width="1"
     style="fill:#000000">
    <g
       fill="#000000"
       id="Mail"
       style="fill:#000000">
      <path
         d="M25,0 C11.1928806,0 0,11.1928806 0,25 C0,38.8071194 11.1928806,50 25,50 C38.8071194,50 50,38.8071194 50,25 C50,11.1928806 38.8071194,0 25,0 Z M25,3 C12.8497349,3 3,12.8497349 3,25 C3,37.1502651 12.8497349,47 25,47 C37.1502651,47 47,37.1502651 47,25 C47,12.8497349 37.1502651,3 25,3 Z M37,31.9646738 L37,17 L28.262875,25.4642914 L37,31.9646738 Z M13,31.9646738 L21.7369375,25.4633812 L13,17 L13,31.9646738 Z M22.9140156,26.604743 L13,33 L37,33 L27.08575,26.604743 L25,28.625083 L22.9140156,26.604743 Z M13.72,17 L25,26.0581312 L36.28,17 L13.72,17 Z M13.72,17"
         id="Oval-1"
         style="fill:#000000" />
    </g>
  </g>
</svg>
